<?xml version="1.0" encoding="UTF-8" standalone="no"?>
<!-- Created with Inkscape (http://www.inkscape.org/) -->

<svg
   xmlns:dc="http://purl.org/dc/elements/1.1/"
   xmlns:cc="http://creativecommons.org/ns#"
   xmlns:rdf="http://www.w3.org/1999/02/22-rdf-syntax-ns#"
   xmlns:svg="http://www.w3.org/2000/svg"
   xmlns="http://www.w3.org/2000/svg"
   version="1.1"
   width="744.09448"
   height="1052.3622"
   id="svg2">
  <defs
     id="defs4" />
  <metadata
     id="metadata7">
    <rdf:RDF>
      <cc:Work
         rdf:about="">
        <dc:format>image/svg+xml</dc:format>
        <dc:type
           rdf:resource="http://purl.org/dc/dcmitype/StillImage" />
        <dc:title></dc:title>
      </cc:Work>
    </rdf:RDF>
  </metadata>
  <g
     id="layer1">
    <path
       d="M292.7140003632019,463.21594529713326L292.71465170735223,463.2158497675213L292.71376516125963,463.21630953651766ZM292.69028689570996,463.1686625984604L292.69046820228215,463.16929501270926L292.6898173028057,463.1693906669134L292.68921990388003,463.16848987952477L292.6881529261185,463.16831714937354L292.6879716233891,463.1676847578928L292.6886225005392,463.167589109578L292.6888572830488,463.1672250866483ZM292.8438615458637,463.0432107620326L292.8442788982971,463.04347773502224L292.84469625271225,463.04374470927957L292.8446461624186,463.04474241907894L292.84589822970753,463.0455433748173L292.84477966454574,463.0463724961819L292.8445459224491,463.0467378614502L292.84519701539455,463.0466394934746L292.8458481117729,463.04654111756815L292.84626546888256,463.0468081138026L292.84658252225245,463.04907065338983L292.84741723590986,463.0496046860081L292.84653233969743,463.05006843581674L292.84624835484044,463.05143160575716L292.8453634386668,463.0518953174751L292.84489585623606,463.05262605604986L292.8444282612236,463.0533567865737L292.84461178923107,463.05398920887404L292.8430757120999,463.0545511538992L292.8430254006969,463.05554892983747L292.8419569526685,463.0553801205773L292.84227357100104,463.0576427565193L292.84305780941276,463.05917475900543L292.8428239571016,463.0595401094498L292.8425901016451,463.05990545788086L292.84165464836667,463.06136683147224L292.8416041950193,463.0623646431672L292.842204900912,463.0632642660431L292.84192051782566,463.06462744445815L292.84252119771514,463.06552710640017L292.84247066851304,463.06652496576527L292.84302076730273,463.0684225450159L292.84297018466145,463.0694204360122L292.8443547706205,463.07185251572724L292.84532201837567,463.0740174897719L292.8459226163245,463.0749173221212L292.846289214249,463.07618255216835L292.8468897955724,463.0770824245287L292.84822345030574,463.0805129419983L292.84942454197414,463.08231286416776L292.8504931902112,463.08248202448425L292.85025913724775,463.0828474389388L292.85174510484126,463.0832838853533L292.85192835150076,463.08391660366493L292.85169428618696,463.08428203047475L292.85234566000213,463.0841838980094L292.8550836307584,463.0854222366666L292.85586743705306,463.08695506676577L292.85563334558105,463.087320527487L292.8560506692256,463.0875878416646L292.859206099886,463.0890935868439L292.86069224465047,463.0895300504722L292.8610587069018,463.09079571040127L292.86439755651674,463.09293439065675L292.86625024716085,463.0946366589917L292.8724297277464,463.0960169534409L292.87568764415465,463.0955255684818L292.8767566711307,463.0956946014794L292.87800898320364,463.09649661048906L292.87785618265747,463.0994925733184L292.87574827466284,463.1027833509266L292.8728053336937,463.10553911121156L292.8718683089589,463.1070015252663L292.8680391826433,463.11022056431403L292.864466199587,463.10844633470293L292.86464925031197,463.1090793430145L292.864414968372,463.1094448793375L292.8628774696316,463.11000650159644L292.86246015556685,463.10973901618627L292.85871117606473,463.11558705376467L292.8591284532811,463.1158545966547L292.85907704417826,463.1168531235634L292.8582710588725,463.11994665641146L292.8557207219394,463.127595600398L292.8544450585922,463.1314200287246L292.85374162634275,463.1325163680919L292.8523864767651,463.1337104169411L292.85144848193653,463.1351721278362L292.8502508952215,463.14162674100925L292.84808767752406,463.14591398515006L292.84743594192514,463.1460115561235L292.8384944668874,463.1480098847903L292.83719109193515,463.14820477410575L292.8315340503743,463.1533429073585L292.8290573400294,463.1553637354348L292.82311228288813,463.1618639116648L292.8176598216984,463.1712608747492L292.81973853085367,463.18085709388504L292.8182000745452,463.18141616398793L292.81726043694385,463.1828766976133L292.8168435755,463.182608498715L292.8159568875985,463.1830705414062L292.8152521213858,463.18416588672346L292.81454732688394,463.18526121383843L292.8140774481667,463.1859914218023L292.8101137475338,463.1875708806145L292.8085752687098,463.1881295455016L292.80841580264195,463.1911246974015L292.8062255024863,463.19177999026965L292.8029134670595,463.1932618934204L292.8009049311823,463.1945502251922L292.79873627222423,463.1988333518298L292.7941205667388,463.20050757463923L292.7916626085912,463.2061533018535L292.79084998894194,463.2092445739204L292.79251655224596,463.2103185065953L292.7931146875785,463.2112204030449L292.7932961713683,463.2118538195727L292.79389429604277,463.2127557446893L292.7935516683437,463.2151174044105L292.79130720390486,463.21676983242565L292.79078296285456,463.21849799718933L292.7885383739734,463.22015021298944L292.7822208537289,463.2253745713763L292.7818043090238,463.2251059369426L292.7818583138559,463.22410765865845L292.78191229884226,463.22310938788576L292.7798835301184,463.2207680981093L292.7795209186081,463.2195012915133L292.77624252957077,463.21635446273376L292.7747038626783,463.2169116157243L292.773998222467,463.2180058955898L292.773003355999,463.22046301558885L292.77318461355765,463.2210963827286L292.7709401216448,463.2227475643985L292.7698178570671,463.22357309752766L292.7690579496873,463.22566534430973L292.7669215573078,463.2253200781538L292.76567221449847,463.22451407333915L292.7634817954895,463.22516676169596L292.7627030552703,463.22363142143774L292.762340720373,463.22236478310026L292.76056683738074,463.2232860546066L292.7587929490538,463.2242072414356L292.7510999440357,463.22698913186L292.743642441929,463.22940512393484L292.7377780723079,463.23026643901255L292.73830307622643,463.2285398783236L292.7378144919165,463.2256426329818L292.7381040550954,463.22428055858586L292.73926190637786,463.21883230649246L292.739134971717,463.21720158720973L292.7392431845468,463.2152064411095L292.7405271630406,463.211389006534L292.7381564358312,463.21140790967837L292.7368535132198,463.21159954863646L292.73513431915353,463.2115225263715L292.73270965905857,463.21253867798976L292.72896333768284,463.2101209425948L292.7268280691493,463.20977513242866L292.7263577683649,463.2105038300406L292.72476574219945,463.21205688061565L292.72411435871027,463.2121525523463L292.72132783069355,463.21190218938784L292.7191385883977,463.21255335769L292.7189034156564,463.2129176413094L292.7183788647646,463.21464344864955L292.71465170735223,463.2158497675213L292.7140003632019,463.21594529713326L292.7145249893093,463.2142196195766L292.7142172395051,463.21195657507496L292.7120281290669,463.2126074477983L292.71226329913793,463.21224322336815L292.7124984660734,463.21187899691347L292.71208232500464,463.2116103132575L292.71153936791865,463.2097116214421L292.7111773676251,463.20844585899687L292.71164763297764,463.207717422761L292.7099642259233,463.203018861382L292.71019931344637,463.20265465472033L292.71048840224455,463.20129342133066L292.7079527198716,463.1924346996563L292.70751677988557,463.1885428104248L292.70840287299757,463.18808293176147L292.7091077404113,463.1869903460349L292.7152029884075,463.18576435140676L292.7091077404113,463.1869903460349L292.70840287299757,463.18808293176147L292.70775174278464,463.1881786248337L292.706791932228,463.1860121192232L292.7127057080485,463.1841536137126L292.71471274421407,463.1828693137908L292.7145314339863,463.1822366333862L292.714115211687,463.1819682018022L292.71234313497956,463.1828882631711L292.70689933106405,463.1840184576796L292.707134255013,463.1836542774043L292.70653682772075,463.18275318255525L292.706355567391,463.182120554629L292.70593939599047,463.181852105138L292.7051606872997,463.1803184398023L292.703133461942,463.1779795461653L292.70295217080826,463.17734697954427L292.7023011423625,463.17744270274864L292.70318703732266,463.17698283325024L292.7030057349734,463.17635027461483L292.70211985058063,463.17681014585594L292.69837450792147,463.1743944577024L292.6979583686751,463.1741260543174L292.6977235267548,463.17449015559794L292.69730739180704,463.17422174991265L292.69707254906297,463.1745858455889L292.6962402897531,463.1740490309003L292.694340962979,463.17333948907293L292.6939248465712,463.1730710852003L292.69374355954506,463.17243861761517L292.6922068543347,463.17299399087625L292.69374355954506,463.17243861761517L292.69314615168975,463.17153776359646L292.6924952212894,463.17163342829L292.69226040082833,463.17199748253853L292.6911933709177,463.17182473396815L292.69142818989155,463.1714606889057L292.690830798131,463.17055986048615L292.69017988840704,463.1706555080806L292.69041469731513,463.17029147174327L292.6906495030893,463.1699274333845L292.6923139275321,463.1710009817266L292.693434471792,463.1701771910808L292.6947898013938,463.1689892880283L292.6954941756812,463.1678970538925L292.6960171520978,463.16617237199154L292.6965934143673,463.1634511861304L292.6951102173152,463.1630103205274L292.6938084428991,463.1632018273584L292.69274142877407,463.16302924621004L292.69185580734404,463.16348902833465L292.6914396838141,463.16322070102683L292.6907888165487,463.1633164165819L292.69060744272576,463.1626840502619L292.69019132516763,463.16241572680485L292.68995658406175,463.1627797612195L292.6903726993099,463.16304808825885L292.68995658406175,463.1627797612195L292.6889429844383,463.16161076413636L292.68870825026244,463.16197478780407L292.6888896199181,463.16260713622114L292.68847351295267,463.1623388094509L292.6881107672409,463.1610741287769L292.68745993438307,463.1611698259441L292.68727855800876,463.1605374985536L292.6847819781122,463.1589276387065L292.68460059406806,463.15829534694336L292.68441920426307,463.1576630616086L292.684184504073,463.1580270463313L292.68400311395055,463.15739476586333L292.68298954278606,463.15622591392156L292.6840564073711,463.1563985102245L292.68774799847967,463.15980947381405L292.69412821787347,463.15722323781597L292.6973825014999,463.1567441442503L292.70128775651693,463.1561689711657L292.7017039580095,463.156437216869L292.7028242185228,463.15561304040193L292.7074867284725,463.15294833551184L292.7106126970381,463.1508393276764L292.71644809922645,463.1463523139582L292.7173864791354,463.14489525192374L292.71855938346175,463.14307387894047L292.7197849637963,463.1402558018254L292.7202540550527,463.13952721739423L292.72408299070315,463.13632393307154L292.72431750404985,463.13595960486407L292.72473389632944,463.1362276286444L292.72608833107813,463.13503829200795L292.72856262641994,463.13302380640783L292.73009893887576,463.1324666587368L292.7385611555796,463.13121281168674L292.74121744909183,463.12982985746754L292.7480141017101,463.12750254463447L292.75090483203127,463.1257543866348L292.7522590939427,463.12456400093436L292.75957678858873,463.12050848448064L292.76764929711294,463.11436024350223L292.7750700454334,463.10830707872844L292.77801197180975,463.10555938984044L292.7785321416823,463.1038325774868L292.77881802295735,463.1024705622684L292.7798064852341,463.10001414001647L292.77977849181514,463.09639017343454L292.78048099105916,463.0952957443228L292.78141761274844,463.09383647728475L292.78230275568694,463.09337436464705L292.78407303746746,463.09245007594063L292.7863629191288,463.0897987559597L292.78948645441824,463.0876821872449L292.7918564118621,463.0876573524316L292.7929243643,463.0878273637363L292.7955797356236,463.0864401377381L292.79818390819474,463.0860500836714L292.8012562871197,463.08492992371345L292.80237548794634,463.0841023490861L292.80177555394755,463.0832025369392L292.8022436628499,463.0824725408043L292.80177555394755,463.0832025369392L292.8026095517151,463.08373734686126L292.8043286951627,463.08380953924734L292.80497977112424,463.08371192012066L292.80586491009706,463.08324926282L292.8065670699425,463.08215415997955L292.8093754264854,463.0777735672822L292.81208156718264,463.0753876376449L292.81371942238303,463.0728319948555L292.8141873527238,463.0721017930729L292.8140550150095,463.07047193480525L292.81452290471475,463.0697417272448L292.81504153075065,463.0680140411636L292.8178484264628,463.0636325730632L292.8203198939702,463.0616109411593L292.8210214949586,463.0605154649977L292.8225574238998,463.059954291092L292.82344231820883,463.05949109204863L292.82456105902725,463.0586626806499L292.8259136249582,463.05746902800223L292.8265646694852,463.0573709531247L292.8285682552667,463.0560791085152L292.8318235511747,463.05558845186783L292.83312569359606,463.0553921337124L292.8354134142187,463.0527370125727L292.8383017921334,463.0509811084564L292.83876934624243,463.0502504834183L292.8396541968475,463.0497868867221L292.84035549245,463.048690911218L292.84105675974655,463.04759491760194L292.8411069280854,463.04659723747886L292.8415242555518,463.04686424512937L292.8411570766309,463.0455995649457L292.84162453808017,463.0448688907462L292.8427430482394,463.0440398455886L292.843076906984,463.04167915146377L292.84331060553035,463.04131379884245L292.8435443009314,463.0409484442093L292.8438280076697,463.0395854254713L292.84401168229743,463.0402177289073L292.8435443009314,463.0409484442093L292.8439616566119,463.0412153990235L292.843494258068,463.041946113464Z"
       id="path2985"
       style="fill:none;stroke:#000000;stroke-width:1px;stroke-linecap:butt;stroke-linejoin:miter;stroke-opacity:1" />
  </g>
</svg>
